<svg width="185" height="254" viewBox="0 0 185 254" fill="none" xmlns="http://www.w3.org/2000/svg">
<path fill-rule="evenodd" clip-rule="evenodd" d="M125.5 7.5L120 34.5H130L180.5 69.5L184.5 100L170.5 115L168.303 111.124L169 116L144.5 218.5L101.5 233L84 241L73 227L21 154L27.5 92.5L30.1923 91.7147L13 75L46 34.5H97L102.5 0.5L125.5 7.5Z" fill="#40E0D6"/>
<path d="M8 167L14.5 105.5L98.5 81L153 108L156 129L131.5 231.5L88.5 246L71 254L60 240L8 167Z" fill="#A9552A"/>
<path d="M112.5 20.5L107 47.5H84L89.5 13.5L112.5 20.5Z" fill="#373326"/>
<path d="M68.5 97.5L18 105.5L0 88L33 47.5H84H117L167.5 82.5L171.5 113L157.5 128L149 113L68.5 97.5Z" fill="#A07D50"/>
</svg>
