<svg width="450" height="378" viewBox="0 0 450 378" fill="none" xmlns="http://www.w3.org/2000/svg">
<path fill-rule="evenodd" clip-rule="evenodd" d="M223.512 364.55L214.884 333.166L231.36 360.196H253.163L237.465 328.845L293.807 253.268L295.895 253.951L332.523 248.726L358.686 355.841H385.721L370.895 307.944V245.242L374.589 243.398L376.128 251.338L393.57 352.358H416.244L404.907 299.235L412.756 224.341L419.733 220.858L441.535 141.61L436.302 65.8451L445.023 51.0405V9.23931L429.326 14.4645L404.907 35.3651L382.233 43.2028L356.07 9.23931L335.139 4.01416V53.6531L343.86 72.812L337.756 94.5835L343.86 128.547L328.163 141.61L198.221 158.156L181.651 172.09L180.89 175.959L155.488 199.087L79.6163 283.56L68.3461 289.991L68.279 289.656L55.1945 297.495L18.5697 318.394L12.4651 348.874L56.9575 345.077L56.9418 345.391L83.9767 343.649V342.771L114.5 340.166L184.559 267.82L190.372 289.656L181.651 338.424L198.221 364.55H223.512Z" fill="#40E080"/>
<path d="M218.895 373.646L194.477 333.586L213.663 232.567H270.349L283.43 263.918L225 342.295L240.698 373.646H218.895Z" fill="#D79B49"/>
<path d="M381.105 365.808L363.663 264.788L358.43 237.792H400.291L392.442 312.686L403.779 365.808H381.105Z" fill="#D79B49"/>
<path d="M102.035 353.616L178.779 274.368L172.674 185.54L143.023 212.537L67.1512 297.01L6.10465 331.845L0 362.325L102.035 353.616Z" fill="#D79B49"/>
<path d="M198.837 333.586L211.047 378H185.756L169.186 351.874L177.907 303.106L159.593 234.308L169.186 185.54L185.756 171.606L315.698 155.06L331.395 141.997L325.291 108.034L331.395 86.2622L322.674 67.1033V17.4644L343.605 22.6895L369.767 56.653L392.442 48.8153L416.86 27.9147L432.558 22.6895V64.4907L423.837 79.2953L429.07 155.06L407.267 234.308L358.43 258.692V321.394L373.256 369.291H346.221L320.058 262.176L283.43 267.401L235.465 251.725V273.497L198.837 333.586Z" fill="#D79B49"/>
<path d="M55.8139 303.106L38.3721 313.557L34.0116 324.007L36.6279 334.457L45.3488 341.424L44.4767 358.841L71.5116 357.099V349.262L66.279 324.007L58.4302 316.169L55.8139 303.106Z" fill="#40A6E0"/>
<path d="M346.221 209.053L338.372 149.835L346.221 121.968L378.488 149.835L410.756 121.968L422.965 135.03L404.651 173.348V198.603V229.083L370.639 246.5L352.326 236.921L370.639 214.279L346.221 209.053Z" fill="#D0CCBE"/>
</svg>
