<svg width="734" height="282" viewBox="0 0 734 282" fill="none" xmlns="http://www.w3.org/2000/svg">
<path fill-rule="evenodd" clip-rule="evenodd" d="M319.629 103.422L377.592 121.087L378.736 116.247L422.788 95.6147L476.877 69.4067L595.65 83.3471L633.391 76.626L631.337 71.6373L651.395 49.7138L647.508 40.968L668.14 14.7599L674.986 50.5706L704.385 58.2545L721.114 81.6744L733.381 107.325L704.385 125.726H667.149L621.858 201.562L630.78 237.25L659.218 260.67L642.49 269.034L621.858 260.67L568.326 192.64H513.122L471.859 224.424L427.807 237.25V250.633L437.844 266.246H397.695L372.603 229.443L364.238 177.585L364.519 176.398L293.421 173.124L222.046 153.05L169.072 112.901L101.043 116.804L83.7565 168.105L44.1657 177.027L23.5338 121.265L32.4557 49.8902L83.7565 0.819824L217.585 5.28077L319.629 103.422Z" fill="#40A6E0"/>
<path d="M307.892 116.159L366.441 134.003V189.764L281.683 185.861L210.308 165.787L157.335 125.638L89.3053 129.542L72.0191 180.842L32.4283 189.764L11.7964 134.003L20.7183 62.6275L72.0191 13.5571L205.847 18.0181L307.892 116.159Z" fill="#726249"/>
<path d="M610.121 214.299L658.076 134.003L624.619 88.8355L583.913 96.0845L465.14 82.144L411.051 108.352L366.999 128.984L352.501 190.322L360.865 242.18L385.958 278.983H426.107L416.07 263.37V249.987L460.121 237.162L501.385 205.378H556.589L610.121 273.407L630.752 281.771L647.481 273.407L619.042 249.987L610.121 214.299Z" fill="#98826C"/>
<path d="M643.578 58.166L619.6 84.3741L631.31 112.813L654.73 138.463H692.648L721.644 120.062L709.376 94.4112L692.648 70.9912L643.578 58.166Z" fill="#90714A"/>
<path d="M635.771 53.7051L644.693 73.7794L663.652 65.4151L656.403 27.4971L635.771 53.7051Z" fill="#E040C6"/>
<path d="M677.592 98.315L692.648 94.4116L687.072 82.7017H672.574L677.592 98.315Z" fill="#1E1320"/>
</svg>
