<svg width="472" height="509" viewBox="0 0 472 509" fill="none" xmlns="http://www.w3.org/2000/svg">
<path fill-rule="evenodd" clip-rule="evenodd" d="M392.002 0L414.744 14.3632L411.08 28.2047L417.736 26.3327L425.801 30.4954L429.107 2.39381L444.069 11.9693L450.054 26.3324L445.86 40.8484L454.841 45.4836L471.598 110.118L469.204 138.246L429.577 144.563L426.118 171.76L439.879 172.957L434.493 204.077L421.236 210.153L417.138 242.378L383.025 324.368L379.626 325.651L391.404 326.762L399.782 336.337L367.985 337.576L388.412 345.913L359.087 353.095H317.793L280.118 328.309L247.772 344.716L201.69 333.944L161.593 371.647L169.972 445.258L153.813 498.522L81.9972 458.424L16.166 357.882L31.7261 279.483L187.327 236.992L243.432 267.929L235.803 217.842L280.089 130.466L339.936 89.7701L371.223 66.8884L369.859 62.8391L379.434 37.1051L390.348 34.0357L388.412 22.7417L392.002 0Z" fill="#40A6E0"/>
<path d="M171.161 247.371L235.197 282.681L272.9 334.149L231.606 355.095L185.524 344.323L145.427 382.026L153.806 455.637L137.647 508.901L65.8312 468.803L0 368.261L15.5601 289.862L171.161 247.371Z" fill="#726249"/>
<path d="M383.616 346.716L337.534 348.512L343.518 334.148L375.237 337.141L383.616 346.716Z" fill="#90714A"/>
<path d="M366.859 334.747L335.14 346.717L317.785 233.607L354.89 176.753L377.631 130.072L414.138 149.223L400.971 252.758L366.859 334.747Z" fill="#D0CCBE"/>
<path d="M301.626 363.473L233.401 318.588L219.636 228.22L263.923 140.844L323.769 100.149L363.866 70.8237L387.805 130.67L372.245 159.397L332.148 228.22L356.086 277.893L342.92 344.322L372.245 356.292L342.92 363.473H301.626Z" fill="#98826C"/>
<path d="M389.002 198.896L338.731 165.381L330.951 141.443L303.422 185.131L338.731 214.456H372.844H394.389L389.002 198.896Z" fill="#90714A"/>
<path d="M418.327 214.455L423.713 183.335L409.948 182.138L397.979 196.501L403.964 221.038L418.327 214.455Z" fill="#90714A"/>
<path d="M433.887 36.7116L426.107 63.6425L408.153 53.4686L412.941 12.7729L427.902 22.3484L433.887 36.7116Z" fill="#B2379E"/>
<path d="M372.245 128.276L353.693 73.2173L363.268 47.4833L401.57 36.7109L438.675 55.8618L455.432 120.496L453.038 148.624L411.744 155.207L372.245 128.276Z" fill="#90714A"/>
<path d="M411.744 86.3833L418.327 99.5495L403.964 101.345L398.578 87.5802L411.744 86.3833Z" fill="#1E1320"/>
<path d="M398.578 24.7416L375.836 10.3784L372.245 33.1201L375.836 54.0664L393.191 45.0894L398.578 24.7416Z" fill="#E040C6"/>
</svg>
