<svg width="213" height="305" viewBox="0 0 213 305" fill="none" xmlns="http://www.w3.org/2000/svg">
<path fill-rule="evenodd" clip-rule="evenodd" d="M206.26 107.937L187.849 95.1936L190.73 90.4874L186.25 42.1716L157.41 7.26133L100.852 0L63.0526 15.0812L45.973 60.3249L48.1993 93.3575L42.1636 93.565L20.4794 130.522L12.8606 190.65V260.163L55.643 280.402L66.6008 278.167L67.0711 279.815V290.081L89.0484 285.388L106.044 290.081L113.663 285.388H131.831L113.663 276.295L108.213 269.683L118.937 267.496L140.938 274.836L135.347 286.561H139.743H156.738L172.855 292.134L176.371 286.561H189.558L176.832 277.175H178.715L191.609 233.472L213 145.187L206.26 107.937Z" fill="#6940E0"/>
<path d="M54.2106 302.947V292.681L51.8663 284.469L91.1323 277.429L100.802 289.161L118.97 298.254H100.802L93.1835 302.947L76.1878 298.254L54.2106 302.947Z" fill="#726249"/>
<path d="M143.878 299.427H126.882H122.486L128.64 286.522L159.994 287.108L176.697 299.427H163.511L159.994 305L143.878 299.427Z" fill="#726249"/>
<path d="M7.61878 143.388L29.303 106.431L165.855 101.738L193.4 120.803L200.139 158.053L178.748 246.339L165.855 290.041H135.087L106.077 280.362L42.7824 293.268L0 273.03V203.516L7.61878 143.388Z" fill="#9A8353"/>
<path d="M55.2319 139.381L35.3524 106.426L33.1124 73.1911L50.192 27.9474L87.9912 12.8662L144.55 20.1275L173.389 55.0378L177.869 103.354L158.55 134.912L106.191 147.201L55.2319 139.381Z" fill="#D9BF89"/>
<path d="M115.412 59.5179L113.527 70.112L122.526 75.7522L133.345 72.5813L136.796 62.6723L128.884 56.3002L115.412 59.5179Z" fill="#1E1320"/>
<path d="M85.7394 65.8847L82.0385 76.0218L68.9345 76.1508L62.5594 67.5559L67.8316 57.2722L80.2933 58.4612L85.7394 65.8847Z" fill="#1E1320"/>
<path d="M92.0114 94.992L96.1138 107.604L98.458 94.992L103.733 81.7932L97.2859 80.3267L92.0114 81.7932V94.992Z" fill="#8F9E6F"/>
<path d="M57.7269 185.331L99.6301 167.732L152.669 175.358V227.274L133.036 278.896H97.872L51.2802 283.002L43.3684 231.38L57.7269 185.331Z" fill="#D9BF89"/>
<path d="M121.607 42.1969L108.714 51.8761L110.179 39.2638L140.947 33.3977L162.339 47.7698V82.38L156.185 115.817L135.673 130.189L147.101 118.163L156.185 82.38L159.408 53.6359L138.603 42.1969H121.607Z" fill="#FD6B6B"/>
</svg>
