<svg width="216" height="291" viewBox="0 0 216 291" fill="none" xmlns="http://www.w3.org/2000/svg">
<path fill-rule="evenodd" clip-rule="evenodd" d="M71.4912 68.6183V69.6459L70.0526 69.3377L32.2871 82.2858L13.2245 104.585L16.4615 127.245L43.4369 135.877L45.9724 134.278L63.9381 180.476L83.0007 203.135L74.7283 253.489L43.7965 267.876L63.9381 272.912L79.7637 267.876L70.7719 275.07L90.9135 277.587L110.336 249.173L113.213 232.628L115.371 253.489L102.423 267.876L110.336 272.912L124.723 266.438L115.371 275.07L135.872 277.587L201.333 275.07L215.719 257.446L201.333 168.607L148.821 122.929L92.9624 103.412L90.3432 75.2556L110.336 60.3459L124.363 13.9483L115.011 0.280762L95.9489 13.9483L71.4912 68.6183Z" fill="#F8CC34"/>
<path fill-rule="evenodd" clip-rule="evenodd" d="M57.1397 82.2505L19.3742 95.1987L0.311646 117.498L3.54869 140.158L30.524 148.79L33.0596 147.191L51.0253 193.389L70.0879 216.048L61.8154 266.402L30.8837 280.789L51.0253 285.824L66.8508 280.789L57.859 287.982L78.0006 290.5L97.4229 262.086L100.3 245.541L102.458 266.402L89.5101 280.789L97.4229 285.824L111.81 279.35L102.458 287.982L122.96 290.5L188.42 287.982L202.807 270.358L188.42 181.52L135.908 135.841L80.0495 116.325L77.2813 86.5665L57.1397 82.2505Z" fill="#938063"/>
<path d="M28.0063 101.313L24.7693 108.506L32.3224 111.024L36.9981 108.506L37.7175 103.111L33.4014 101.313H28.0063Z" fill="#1E1320"/>
<path d="M69.0088 105.629L58.5784 102.752V81.5309L83.036 26.8609L102.099 13.1934L111.45 26.8609L97.4229 73.2585L76.2023 89.084L69.0088 105.629Z" fill="#F38243"/>
<path d="M120.802 267.841L100.3 244.822L120.802 217.127L145.619 230.435L153.891 271.078L145.619 276.113L120.802 267.841Z" fill="#B7A79A"/>
</svg>
