<svg width="408" height="308" viewBox="0 0 408 308" fill="none" xmlns="http://www.w3.org/2000/svg">
<path fill-rule="evenodd" clip-rule="evenodd" d="M127.718 14.1809L117.42 26.1692L132.04 45.2001L181.902 42.5566L291.079 62.8251L335.155 115.928L331.149 151.263L355.777 194.57L395.789 257.422L396.213 256.997L396.14 257.974L407.131 275.239L399.044 294.696L355.777 253.349L322.619 218.487L322.616 218.483L312.915 208.353L312.954 208.325L307.912 203.024L291.079 216.865L284.205 239.566L280.566 278.481L234.873 286.183L165.323 282.13L160.066 278.481L202.524 269.969L170.58 212.001C165.997 231.459 156.589 271.023 155.618 273.617C154.648 276.211 150.631 285.508 148.744 289.832L115.182 286.183L136.614 260.24L115.182 216.865L107.095 226.189V278.481C107.095 281.4 100.895 287.264 97.7949 289.832L64.6373 286.183L89.3033 263.888L56.5501 212.001L28.395 95.5216L15.7097 90.7957L13.2836 62.4199L26.7561 41.0769L14.0923 21.0722L22.5839 9.3165L43.9672 13.8113L46.0368 10.5326L97.8195 17.2207L103.456 8.91109L125.291 0.803711L127.718 14.1809Z" fill="#40E0D6"/>
<path d="M43.2665 225.305L14.5569 106.531L84.5113 60.3194L168.618 55.8604L277.796 76.1288L321.871 129.232L313.784 200.577L277.796 230.169L270.922 252.87L267.282 291.785L221.59 299.487L152.04 295.433L146.783 291.785L189.241 283.272L157.296 225.305C152.713 244.762 143.305 284.326 142.335 286.921C141.364 289.515 137.348 298.812 135.461 303.135L101.899 299.487L123.33 273.544L101.899 230.169L93.8116 239.493V291.785C93.8116 294.704 87.6114 300.568 84.5113 303.135L51.3537 299.487L76.0197 277.192L43.2665 225.305Z" fill="#6B573A"/>
<path d="M9.30029 22.6201L34.3707 27.8899L14.1526 55.455L0.808716 34.3758L9.30029 22.6201Z" fill="#A58C6A"/>
<path d="M101.899 42.0779L83.2982 32.349L90.1724 22.2148L112.008 14.1074L114.434 27.4846L101.899 42.0779Z" fill="#A58C6A"/>
<path d="M62.2715 126.395L2.42616 104.1L0 75.7237L32.7532 23.8364L98.664 32.3492L125.756 67.6163V98.4243L62.2715 126.395Z" fill="#8B7964"/>
<path d="M43.2666 93.1545L15.3657 91.1276L27.4965 70.4538L50.1407 62.3464L60.6541 65.5894L59.0367 78.5612L43.2666 93.1545Z" fill="#1E1320"/>
<path d="M92.5986 95.5866L80.4678 76.5343V61.5356L107.156 74.1021L105.538 95.5866H92.5986Z" fill="#1E1320"/>
<path d="M65.5065 97.208L69.5501 87.0737H79.6591L84.5114 97.208L75.2111 103.289L65.5065 97.208Z" fill="#1E1320"/>
<path d="M342.493 207.874L317.827 164.499L292.757 204.631V214.36L342.493 266.652L385.76 308L393.847 288.542L342.493 207.874Z" fill="#6B573A"/>
<path d="M329.958 200.172L309.336 231.79L299.631 221.656L329.958 200.172Z" fill="#40E080"/>
<path d="M347.75 220.44L312.166 233.007L328.745 244.357L347.75 220.44Z" fill="#40E080"/>
<path d="M339.259 257.734L329.958 248.411L355.029 228.142L351.389 248.411L339.259 257.734Z" fill="#40E080"/>
<path d="M355.029 277.597L346.537 268.274L366.351 248.411L365.542 268.274L355.029 277.597Z" fill="#40E080"/>
<path d="M382.93 270.3L365.138 288.137L381.716 286.515L382.93 270.3Z" fill="#40E080"/>
</svg>
