<svg width="470" height="225" viewBox="0 0 470 225" fill="none" xmlns="http://www.w3.org/2000/svg">
<path d="M62.1574 144.704L36.8399 164.358L18.3196 126.024L27.9488 45.5515L62.4357 10.9587L120.839 2.92883L151.625 10.855L182.293 50.2462L214.775 68.8117L288.837 51.6534L339.806 58.714L369.836 75.3174L384.285 80.0727L399.492 56.0416L400.474 44.7611L412.133 41.4045L420.81 42.16L443.749 39.7856L462.951 50.2006L468.496 56.8035L467.59 67.2163L469.852 81.4023L452.344 101.736L436.228 156.289L439.622 177.567L453.315 191L430.754 189.036L415.742 160.625L422.718 190.959L408.193 187.072L398.387 159.114L309.462 166.235L261.473 155.063L253.283 178.83L264.676 188.565L247.963 189.733L229.328 162.756L214.011 157.925L215.103 175.506L213.894 189.39L199.974 178.561L173.836 107.214L124.338 93.2875L82.7607 108.902L62.1574 144.704Z" fill="#E0ED97"/>
<path d="M48.7058 158.156L23.3882 177.81L4.86792 139.476L14.4971 59.0036L48.9841 24.4108L107.388 16.381L138.173 24.3071L168.841 63.6983L201.323 82.2639L275.385 65.1056L326.355 72.1661L356.384 88.7696L370.834 93.5248L386.04 69.4938L387.023 58.2132L398.681 54.8567L407.358 55.6122L430.297 53.2378L449.499 63.6527L455.045 70.2557L454.138 80.6685L456.4 94.8544L438.892 115.188L422.777 169.741L426.17 191.02L439.864 204.452L417.303 202.488L402.29 174.077L409.266 204.411L394.742 200.524L384.935 172.566L296.01 179.687L248.021 168.515L239.832 192.283L251.225 202.018L234.511 203.185L215.876 176.208L200.559 171.377L201.651 188.958L200.443 202.842L186.522 192.013L160.384 120.667L110.887 106.74L69.309 122.355L48.7058 158.156Z" fill="black"/>
<path d="M178.455 123.988L278.025 74.9528L351.102 89.184L371.474 96.2035L391.21 60.3264L425.09 52.7844L436.861 58.1807L441.385 86.5526L429.051 57.5008L407.056 59.083L391.21 60.3264L396 75.6067L376.152 102.731L328.086 112.535L307.374 99.3659L255.686 110.603L226.934 139.575L202.523 148.816L175.736 155.227L161.327 119.874L119.488 108.363L43.9243 62.4399L13.2104 93.864L38.6078 33.1248L101.613 32.4901L177.1 99.3897L178.455 123.988Z" fill="white"/>
<path d="M107.999 101.687L157.647 107.784L178.551 123.462L177.68 98.2024L101.613 32.4901L38.6078 33.1248L13.2104 93.864L43.9243 62.4399L107.999 101.687Z" fill="#60CB5B"/>
</svg>
