<svg width="549" height="361" viewBox="0 0 549 361" fill="none" xmlns="http://www.w3.org/2000/svg">
<path fill-rule="evenodd" clip-rule="evenodd" d="M338.883 132.771L279.369 47.5854L145.74 0.0581055H79.8992L32.5453 65.6911L13.4092 141.67L53.6275 205.687L124.01 175.295L179.796 149.753H240.124L308.421 173.343L293.641 249.01L320.237 281.665L337.751 288.455L347.481 273.582L348.185 273.33L348.454 274.229L376.347 263.883L376.293 263.256L376.348 263.236L388.673 324.99L381.213 341.155L409.755 348.592L426.863 297.431L432.134 281.989L482.731 249.657L511.207 285.849L519.058 295.891L519.258 296.081L521.652 299.124L521.971 298.661L540.14 315.937L548.249 305.914L532.68 273.582L540.14 198.25L527.167 142.316L521.064 139.861L521.004 139.083L514.329 122.75L520.355 100.932L509.328 81.533L500.735 109.515L484.678 103.842L468.137 107.822V100.609L446.73 80.24L442.838 102.549L445.785 109.566L439.594 107.075L370.51 110.632L338.883 132.771Z" fill="#40A6E0"/>
<path d="M265.96 59.9936L329.207 150.522L300.665 187.703L226.715 162.161H166.387L110.6 187.703L40.2183 218.095L0 154.078L19.1361 78.0993L66.49 12.4663H132.331L265.96 59.9936Z" fill="#726249"/>
<path d="M396.346 361L367.804 353.564L375.264 337.398L362.939 275.645L334.072 285.991L324.342 300.863L306.827 294.074L280.231 261.419L299.368 163.454L357.1 123.04L426.185 119.483L513.757 154.725L526.731 210.658L519.271 285.991L534.84 318.322L526.731 328.345L505.649 308.299L468.998 261.419L418.725 294.074L396.346 361Z" fill="#98826C"/>
<path d="M392.128 257.216L402.832 340.954L418.724 294.397L469.322 262.066L508.243 311.533L515.378 301.187L508.243 279.525L503.378 242.667L487.485 214.215L430.725 209.688L392.128 257.216Z" fill="#D0CCBE"/>
<path d="M433.644 125.303L471.268 116.25L496.891 125.303L507.594 151.491L510.513 189.643L478.403 219.388H452.132L420.346 189.643L433.644 125.303Z" fill="#90714A"/>
<path d="M506.946 113.34L500.783 135.649L486.188 125.626L495.918 93.9414L506.946 113.34Z" fill="#E040C6"/>
<path d="M454.726 113.017V125.626L435.266 128.859L429.428 114.957L433.32 92.6479L454.726 113.017Z" fill="#E040C6"/>
<path d="M441.429 156.988L443.375 171.86L434.293 171.214L433.645 163.777L436.888 156.988H441.429Z" fill="#1E1320"/>
<path d="M497.215 175.74V179.943L501.756 178.973L505.972 170.89L502.404 162.161L497.215 175.74Z" fill="#1E1320"/>
<path d="M475.484 207.748L460.564 207.102L467.051 213.891L475.484 207.748Z" fill="#1E1320"/>
<path d="M359.37 234.907L362.938 276.291L335.044 286.637L328.558 264.975L335.044 224.237L359.37 234.907Z" fill="#D0CCBE"/>
</svg>
