<svg width="294" height="340" viewBox="0 0 294 340" fill="none" xmlns="http://www.w3.org/2000/svg">
<path fill-rule="evenodd" clip-rule="evenodd" d="M79.845 143.232L47.9497 209.173L79.845 304.142L118.191 308.443L118.399 307.608L118.549 307.726L281.251 328.153L291.285 312.743L221.044 304.501L248.997 229.959L238.976 212.029L253.902 199.323L254.373 199.497V198.922L264.982 189.891L265.483 196.271L287.344 187.312L293.794 150.4L279.839 93.8953L284.835 86.609L277.797 44.9951L279.101 46.1126L283.043 9.55846L270.142 13.1422L265.292 29.1166L251.148 18.1595L214.593 25.6854L212.373 33.991L214.235 22.8183L208.143 15.6508L196.317 8.12499L204.918 45.0376L209.121 46.1583L204.917 61.8812L205.406 63.3126L174.625 82.0006L175.531 78.3664L148.653 9.55851L94.5384 0.95752L11.3955 9.55851L30.7477 62.2395H90.9546L106.723 86.609L79.845 143.232ZM269.703 108.676L270.616 108.751L270.427 107.621L269.703 108.676Z" fill="#40A6E0"/>
<path d="M68.4495 154.842L36.5542 220.783L68.4495 315.752L106.796 320.053L164.135 89.9762L137.257 21.1684L83.1429 12.5674L0 21.1684L19.3522 73.8494H79.5591L95.3276 98.2189L68.4495 154.842Z" fill="#726249"/>
<path d="M270.931 186.737L260.18 120.438L220.4 117.213L206.424 191.038L227.568 223.65L270.931 186.737Z" fill="#D0CCBE"/>
<path d="M134.39 111.12L194.597 74.5662L212.516 114.346L191.73 159.501L237.602 241.569L209.649 316.111L279.89 324.353L269.856 339.763L107.154 319.336L85.6514 302.492V179.57L134.39 111.12Z" fill="#98826C"/>
<path d="M282.399 162.009L267.706 102.519L257.671 111.12L267.706 170.969L252.654 189.604L254.087 207.881L275.948 198.922L282.399 162.009Z" fill="#90714A"/>
<path d="M203.199 37.2951L239.753 29.7693L265.197 49.4799L273.44 98.2188L256.238 123.305L209.291 119.721L193.522 73.491L203.199 37.2951Z" fill="#90714A"/>
<path d="M198.897 58.0809L193.522 56.6474L184.921 19.7349L196.747 27.2607L202.84 34.4282L198.897 58.0809Z" fill="#E040C6"/>
<path d="M242.978 211.107L212.875 199.997L162.702 194.263L177.037 136.923L201.765 109.329L227.568 124.739L212.875 162.01L242.978 189.963V211.107Z" fill="#90714A"/>
<path d="M271.648 21.1682L258.746 24.752L252.654 44.8209L267.706 57.7224L271.648 21.1682Z" fill="#E040C6"/>
<path d="M212.874 63.8149L217.533 74.9245L210.724 77.7915L207.14 69.9073L212.874 63.8149Z" fill="#1E1320"/>
<path d="M255.521 77.0748L258.388 63.4565L263.764 68.4738L261.255 77.0748H255.521Z" fill="#1E1320"/>
<path d="M231.51 100.011H239.394H246.561L239.394 107.895L231.51 100.011Z" fill="#1E1320"/>
</svg>
