<svg width="206" height="321" viewBox="0 0 206 321" fill="none" xmlns="http://www.w3.org/2000/svg">
<path fill-rule="evenodd" clip-rule="evenodd" d="M203.543 113.893L193.6 208.016L205.467 248.179L202.004 309.743H31.1644L34.2426 230.479L40.2119 222.673L22.6994 190.463L12.6953 104.274L81.5697 0L167.759 36.9382L203.543 113.893Z" fill="#40A6E0"/>
<path d="M190.848 124.588L179.304 233.864L31.5514 240.79L10.0041 201.158L0 114.969L68.8744 10.6953L155.064 47.6336L190.848 124.588Z" fill="#726249"/>
<path d="M192.771 258.874L189.308 320.438H18.4688L21.5469 241.175L56.5613 195.387L143.905 178.072L177.765 208.084L192.771 258.874Z" fill="#98826C"/>
<path d="M131.208 198.85L66.5658 208.854L47.7119 252.333L55.0226 320.053H143.905L147.753 243.099L131.208 198.85Z" fill="#D0CCBE"/>
<path d="M116.201 290.426V274.65L136.017 263.877L140.057 225.014L121.588 203.852L138.903 187.307L174.302 227.323L162.374 286.578L138.903 290.426H116.201Z" fill="#90714A"/>
<path d="M85.0349 289.271L71.5679 292.349L38.8621 289.271L23.4712 262.337L36.9383 226.938L60.4094 202.312L71.5679 211.547L53.0987 255.796L81.572 270.417L85.0349 289.271Z" fill="#90714A"/>
<path d="M47.7119 200.389L96.9629 229.631L136.979 205.006L152.37 157.679L130.438 106.889H69.644L47.7119 148.444V200.389Z" fill="#90714A"/>
<path d="M78.8782 155.425V171.146L69.028 169.24L66.5654 151.138L78.8782 155.425Z" fill="#1E1320"/>
<path d="M114.277 171.915V154.678L126.59 150.368L124.696 167.606L114.277 171.915Z" fill="#1E1320"/>
<path d="M88.1128 197.311L97.4689 207.315L105.043 197.311H88.1128Z" fill="#1E1320"/>
<path d="M133.516 121.125H124.854L115.816 106.445L124.854 86.4956L133.516 98.1643V121.125Z" fill="#E040C6"/>
<path d="M71.9525 117.369L59.5543 130.36L52.7139 104.798L65.5396 88.0352L71.9525 117.369Z" fill="#E040C6"/>
</svg>
