<svg width="388" height="381" viewBox="0 0 388 381" fill="none" xmlns="http://www.w3.org/2000/svg">
<path fill-rule="evenodd" clip-rule="evenodd" d="M365.025 27.9849L372.262 9.25354L386.388 -0.000976562L384.926 26.3013L376.808 38.8843L380.056 41.8881L381.442 54.2113L383.952 57.4747L382.502 63.6368L384.439 80.8545L377.534 97.5086L379.569 99.3635L387.362 131.024L383.513 140.029L386.875 191.421L369.34 223.081H349.37V220.167L331.835 261.561L318.925 282.964L317.71 286.889L305.533 340.468V346.8L336.219 360.438L326.477 367.257L247.57 356.541L181.814 332.187L180.929 323.092L150.154 310.269L99.4972 250.358L114.597 188.986L130.67 140.278L114.597 117.872L80.0141 184.115L42.996 235.746L23.9998 172.912L42.996 80.3671L95.6006 37.9911L169.15 54.5519L213.961 136.381L180.353 212.853L169.15 258.638L177.291 274.568L209.091 176.322L270.95 109.592L301.9 78.6418L299.2 71.5999L311.766 36.9486L305.045 19.9693L307.968 0.973164L316.248 3.89564L326.477 19.9693V26.4324L360.572 23.8661L365.025 27.9849ZM369.34 191.421L364.591 184.298L361.547 191.422L356.724 202.806L369.34 191.421Z" fill="#40A6E0"/>
<path d="M154.892 272.381L166.095 294.299L170.965 338.624L135.896 324.011L85.2393 264.1L100.339 202.728L116.412 154.02L100.339 131.615L65.7561 197.857L28.738 249.488L9.7419 186.655L28.738 94.1094L81.3427 51.7334L154.892 68.2941L199.703 150.124L166.095 226.595L154.892 272.381Z" fill="#726249"/>
<path d="M321.96 374.18L291.274 360.542V354.21L303.451 300.631L326.831 225.134L347.289 162.301L365.311 123.334L333.163 103.851L291.274 88.7515L256.692 123.334L194.833 190.064L162.198 290.89L167.556 345.93L233.312 370.284L312.219 381L321.96 374.18Z" fill="#98826C"/>
<path d="M277.149 264.101L299.067 305.99L317.576 275.303L347.288 205.164L373.104 144.766L365.31 113.106L348.75 98.0063L309.296 118.951L292.735 184.22L277.149 264.101Z" fill="#D0CCBE"/>
<path d="M335.111 223.186V236.825H355.081L372.616 205.164L369.207 153.047L350.211 197.858L355.081 205.164L335.111 223.186Z" fill="#90714A"/>
<path d="M301.016 189.577V131.128L276.175 109.209L255.23 125.77L240.618 175.939L273.739 212.957L317.576 243.156L327.805 234.876L317.576 212.957L301.016 189.577Z" fill="#90714A"/>
<path d="M332.676 127.718L361.901 114.567L370.181 94.5968L365.797 55.6304L346.314 37.6084L301.016 41.018L284.942 85.3422L296.145 114.567L332.676 127.718Z" fill="#90714A"/>
<path d="M358.004 22.9957L349.724 44.4273L360.927 55.143L370.668 40.0435L372.129 13.7412L358.004 22.9957Z" fill="#E040C6"/>
<path d="M300.041 57.0913L312.218 44.9143V33.7115L301.99 17.6378L293.709 14.7153L290.787 33.7115L300.041 57.0913Z" fill="#E040C6"/>
<path d="M304.425 63.4238L308.809 77.0621L301.016 78.0362L298.58 70.2429L304.425 63.4238Z" fill="#1E1320"/>
<path d="M369.694 71.2173L364.823 64.8853L360.439 79.4977H367.746L369.694 71.2173Z" fill="#1E1320"/>
<path d="M339.982 104.338L332.445 112.132L326.344 104.338H339.982Z" fill="#1E1320"/>
</svg>
