<svg width="425" height="266" viewBox="0 0 425 266" fill="none" xmlns="http://www.w3.org/2000/svg">
<path fill-rule="evenodd" clip-rule="evenodd" d="M136.11 24.583L130.969 0.936279L123.285 22.3418L104.894 19.1279L96.117 26.1158L95.1921 19.7342L73.0589 14.5799L78.6679 40.0073L73.6654 43.9899L70.3302 80.07L75.2698 82.8431L55.4738 95.5328L43.0429 129.491L37.8886 182.246L34.8566 228.938L20.0001 246.523H51.5323L55.4738 228.938L64.6115 181.274L67.8034 185.044L69.1176 200.741L95.7987 224.997L63.6601 239.247L106.124 241.919L103.681 252.284L138.852 247.736V234.093L140.597 227.836L147.342 224.997H189.789L170.688 245.614L218.289 239.247L225.081 172.18L275.289 147.076L298.635 186.491L339.87 223.481L424.461 218.933L404.45 172.847L339.87 97.6553L232.236 74.0061L190.723 109.885L151.48 91.8334L162.198 90.0754L172.81 60.3623L136.123 24.5854L136.11 24.583Z" fill="#40A6E0"/>
<path d="M219.513 87.0698L177.066 123.756V160.14L211.023 185.911L262.566 160.14L285.912 199.555L327.147 236.545L411.738 231.997L391.727 185.911L327.147 110.719L219.513 87.0698Z" fill="#726249"/>
<path d="M157.965 258.678L205.566 252.311L212.843 180.454L191.619 129.214L115.821 94.3464L71.2511 112.538L50.9371 148.618L56.3946 213.805L83.0757 238.06L50.9371 252.311L94.2939 255.039L134.619 238.06H177.066L157.965 258.678Z" fill="#98826C"/>
<path d="M102.783 94.0432L127.038 111.628V191.065L157.964 205.619L162.209 234.119H117.639L90.9584 240.486L49.1176 191.065L57.3038 118.602L77.3146 99.8039L102.783 94.0432Z" fill="#D0CCBE"/>
<path d="M145.836 176.512L130.98 121.634L122.794 126.485V165.597L103.389 212.592L90.9583 265.348L126.129 260.8V247.156L145.836 176.512Z" fill="#90714A"/>
<path d="M38.8089 259.587L42.7505 242.002L53.9687 183.485L62.7613 124.666L78.8306 101.32L66.3996 93.4368L42.7505 108.596L30.3195 142.554L25.1652 195.31L22.1333 242.002L7.27676 259.587H38.8089Z" fill="#90714A"/>
<path d="M124.31 41.8939L118.246 14L109.756 37.6491L124.31 41.8939Z" fill="#B2379E"/>
<path d="M149.475 103.139L160.087 73.426L123.4 37.6491L92.1714 32.1917L60.9424 57.0536L57.6073 93.1337L92.1714 112.538L149.475 103.139Z" fill="#90714A"/>
<path d="M60.3359 27.6437L69.4317 68.8781L85.501 53.7184L82.469 32.798L60.3359 27.6437Z" fill="#E040C6"/>
<path d="M100.661 73.4262L110.363 69.4847L100.661 59.7825L92.7775 66.4527L100.661 73.4262Z" fill="#1E1320"/>
</svg>
